# xmcd
#
# Track frame offsets:
#	150
#	11130
#	24493
#	34830
#	45047
#	58092
#	67875
#	78733
#	90961
#	101557
#	109800
#	122011
#	131492
#	142245
#	154026
#	169062
#	178424
#	189284
#	199762
#	208962
#	218284
#	229733
#	238153
#	254013
#	265102
#	281403
#	292085
#	303437
#	313717
#	324387
#	339004
#
# Disc length: 4702
#
# Revision: 1
# Processed by: cddbd v1.5.1PL0 Copyright (c) Steve Scherf et al.
# Submitted via: ExactAudioCopy v0.95a3
# Normalized: r0:TDELIM( - )
#
DISCID=be125c1f
DTITLE=Various Artist - Rocrabilly  Revival
DYEAR=2003
DGENRE=Rock and Roll
TTITLE0=Elvis Presley - Jailhouse Rock
TTITLE1=Stray Cats - Runaway Boys
TTITLE2=Buddy Holly - That'll be the day
TTITLE3=Carl Perkins - Blue Suede Shoes
TTITLE4=Ritchie Valens - La Bamba
TTITLE5=Roy Orbison - Ooby Dooby
TTITLE6=The Everly Brothers - Bye Bye Love
TTITLE7=Chuck Berry - Johnny B Goode
TTITLE8=Del Shannon - Runaway
TTITLE9=Jerry Lee Lewis - Great Balls Of Fire
TTITLE10=Shakin Stevens - You Drive Me Crazy
TTITLE11=Bill Haley - Rock Around The Clock
TTITLE12=Big Bopper - Chantilly Lace
TTITLE13=Chubby Checker - The Hucklebuck
TTITLE14=The Blues Brothers - Jailhouse Rock
TTITLE15=The Everly Brothers - Wake Up Little Suzie
TTITLE16=Duane Eddy - Rebel Rouser
TTITLE17=Fats Domino - Blueberry Hill
TTITLE18=Little Richard - Long Talk Sally
TTITLE19=Mud - Teddy Bear
TTITLE20=Pat Bone - Speedy Gonzales
TTITLE21=Ray Charles - Hit The Road Jack
TTITLE22=Elvis vs. JXL - A Little Less Conversation
TTITLE23=Johnnie Ray - Yes, Tonight Josephine
TTITLE24=Racey - Some Girls
TTITLE25=Little Richard - Tutti Frutti
TTITLE26=Shakin Stevens - Oh Julie
TTITLE27=Rocky Sharpe and The Replays - Roma Loma Ding Dong
TTITLE28=Mud - Otsy Bitsy Teeny Meeny Yellow Polka Dot Bikini
TTITLE29=Stray Cats - Stray Cat Strut
TTITLE30=The Rubettes - Juke Box Jive
EXTD=
EXTT0=
EXTT1=
EXTT2=
EXTT3=
EXTT4=
EXTT5=
EXTT6=
EXTT7=
EXTT8=
EXTT9=
EXTT10=
EXTT11=
EXTT12=
EXTT13=
EXTT14=
EXTT15=
EXTT16=
EXTT17=
EXTT18=
EXTT19=
EXTT20=
EXTT21=
EXTT22=
EXTT23=
EXTT24=
EXTT25=
EXTT26=
EXTT27=
EXTT28=
EXTT29=
EXTT30=
PLAYORDER=
